<?xml version="1.0" standalone="no"?><!DOCTYPE svg PUBLIC "-//W3C//DTD SVG 1.1//EN" "http://www.w3.org/Graphics/SVG/1.1/DTD/svg11.dtd"><svg t="1764238254524" class="icon" viewBox="0 0 1024 1024" version="1.1" xmlns="http://www.w3.org/2000/svg" p-id="14657" xmlns:xlink="http://www.w3.org/1999/xlink" width="162" height="162"><path d="M488 640a8 8 0 0 0-8 8v112a8 8 0 0 0 8 8h48a8 8 0 0 0 8-8V648a8 8 0 0 0-8-8h-48zM483 361v209a8 8 0 0 0 8 8h48a8 8 0 0 0 8-8V361h-64z" fill="#ffffff" p-id="14658"></path><path d="M352 151.521L136.946 276.24A32 32 0 0 0 121 303.921v416.173a32 32 0 0 0 15.946 27.681l358.593 207.962a31.998 31.998 0 0 0 32.107 0l358.593-207.962a32 32 0 0 0 15.946-27.681V303.921a32 32 0 0 0-15.946-27.681L672 151.994v83.232l158.185 91.738v370.087L511.593 881.816 193 697.051V326.964l159-92.211v-83.232z" fill="#ffffff" p-id="14659"></path><path d="M493.311 178.723c12.102-10.694 30.276-10.694 42.378 0L704.648 328.02c22.085 19.514 8.282 55.98-21.189 55.98H345.541c-29.471 0-43.274-36.466-21.189-55.98l168.959-149.297z" fill="#ffffff" p-id="14660"></path></svg>