<?xml version="1.0" standalone="no"?><!DOCTYPE svg PUBLIC "-//W3C//DTD SVG 1.1//EN" "http://www.w3.org/Graphics/SVG/1.1/DTD/svg11.dtd"><svg t="1764238457202" class="icon" viewBox="0 0 1024 1024" version="1.1" xmlns="http://www.w3.org/2000/svg" p-id="24598" xmlns:xlink="http://www.w3.org/1999/xlink" width="162" height="162"><path d="M838.4 166.4c-6.4-16-22.4-22.4-38.4-22.4H224c-16 0-32 9.6-38.4 22.4s-6.4 32 3.2 48l233.6 297.6-233.6 297.6c-9.6 12.8-9.6 32-3.2 44.8s22.4 22.4 38.4 22.4h576c16 0 32-9.6 38.4-22.4s6.4-32-3.2-48L601.6 512l233.6-297.6c12.8-16 12.8-32 3.2-48z m-576 649.6l70.4-89.6h358.4l70.4 89.6H262.4z m403.2-118.4h-307.2l124.8-160c9.6-16 9.6-35.2 0-51.2L448 441.6h128l-35.2 44.8c-9.6 16-9.6 35.2 0 51.2l124.8 160z m-64-288h-179.2l-160-204.8h499.2l-160 204.8z" fill="#ffffff" p-id="24599"></path></svg>