<?xml version="1.0" standalone="no"?><!DOCTYPE svg PUBLIC "-//W3C//DTD SVG 1.1//EN" "http://www.w3.org/Graphics/SVG/1.1/DTD/svg11.dtd"><svg t="1724744699204" class="icon" viewBox="0 0 1024 1024" version="1.1" xmlns="http://www.w3.org/2000/svg" p-id="6819" xmlns:xlink="http://www.w3.org/1999/xlink" width="30" height="30"><path d="M96.0512 505.6512a38.4 38.4 0 0 1 55.6544-34.304l4.608 2.7136 136.6528 94.72a38.4 38.4 0 0 1-7.936 67.4304l-5.5296 1.6384-71.8336 16.1792 3.328 6.5536a332.8 332.8 0 0 0 282.6752 177.664l11.9808 0.2048a332.8 332.8 0 0 0 302.1824-193.28 38.4 38.4 0 1 1 69.7344 32.256A409.6 409.6 0 0 1 96.0512 505.6512zM915.2512 518.3488a38.4 38.4 0 0 1-55.7056 34.304l-4.608-2.7136-136.6528-94.72a38.4 38.4 0 0 1 7.9872-67.3792l5.4784-1.6896 71.8336-16.1792-3.328-6.5024a332.8 332.8 0 0 0-282.6752-177.664l-11.9296-0.256A332.8 332.8 0 0 0 203.4176 378.88a38.4 38.4 0 0 1-69.6832-32.256 409.6 409.6 0 0 1 781.5168 171.776z" fill="#ffffff" p-id="6820"></path></svg>